:SAMPLES-PER-SECOND 30
:FULLY-SPECIFIED
:DEGREES
648
root  20.8985 34.0546 14.1303 5.4289 -22.5942 -3.60434
LeftUpLeg  -28.7547 10.9493 4.12761
LeftLeg  39.0606 8.43786 5.94359
LeftFoot  -3.37351 -0.0183868 -0.624386
LeftToes  -9.27398 2.60077e-006 -1.42232e-007
Spine  5.03295 3.05877 2.22999
Spine1  10.1668 5.92218 4.69014
RightShoulder  0.0153638 3.10742 0.521624
RightArm  1.52523 -30.0667 53.962
RightForeArm  27.2874 49.0911 11.7684
RightHand  0.400223 -4.20765 -10.476
LeftShoulder1  0.00126834 2.73476 -6.91089
LeftArm  22.036 25.9526 -48.5117
LeftForeArm  82.944 -78.387 -59.9555
LeftHand  -0.664292 -11.1284 6.44493
HEad  -33.7589 50.292 -34.9965
RightUpLeg  -6.50577 -11.1624 5.54918
RightLeg  10.8978 0.64698 0.0831854
RightFoot  -1.83609 -0.00647297 -0.0264064
RightToes  -25.6417 -0.11509 -0.220563
649
root  20.5496 34.0435 14.3539 5.94148 -23.3636 -3.65586
LeftUpLeg  -29.9905 10.5958 1.57289
LeftLeg  33.0631 9.28924 5.18897
LeftFoot  -2.91235 -0.0141252 -0.555667
LeftToes  -7.7385 2.60077e-006 -1.42232e-007
Spine  5.03889 3.21206 2.41309
Spine1  10.2072 6.22198 5.05137
RightShoulder  0.0137556 2.7623 -0.368729
RightArm  9.86038 -31.8738 49.8899
RightForeArm  31.0275 58.7538 16.9676
RightHand  0.302299 -3.12771 -10.6462
LeftShoulder1  -0.00024973 3.50828 -7.07785
LeftArm  25.9554 28.7284 -45.3882
LeftForeArm  97.5809 -79.5102 -74.0609
LeftHand  -1.0964 -12.9231 9.29303
HEad  -33.7163 50.8852 -35.104
RightUpLeg  -6.13396 -10.7781 5.94337
RightLeg  10.3858 1.03072 0.122455
RightFoot  -2.28313 -0.00844548 -0.0462912
RightToes  -25.2692 -0.11209 -0.217779
650
root  20.1601 34.0273 14.6539 6.73577 -24.0761 -3.79012
LeftUpLeg  -30.5924 10.4815 -0.791432
LeftLeg  25.1875 8.74569 3.42556
LeftFoot  -0.7666 -0.000914393 -0.13669
LeftToes  -7.15138 2.60077e-006 -1.42232e-007
Spine  4.9317 3.41754 2.56947
Spine1  10.0154 6.61788 5.38126
RightShoulder  0.011005 2.56841 -0.988243
RightArm  17.1628 -33.8135 45.3622
RightForeArm  39.4833 66.9878 24.6872
RightHand  0.160935 -1.51061 -11.7408
LeftShoulder1  -0.0016866 4.17918 -6.89799
LeftArm  29.6656 31.6134 -42.359
LeftForeArm  110.389 -79.8649 -85.1457
LeftHand  -1.63842 -14.8657 12.1452
HEad  -33.5959 51.5647 -34.9338
RightUpLeg  -5.78573 -10.7883 6.40765
RightLeg  9.76283 1.81248 0.194405
RightFoot  -2.7992 -0.0114874 -0.0926387
RightToes  -24.6558 -0.108904 -0.212152
651
root  19.7337 33.9899 15.0231 7.63127 -24.7931 -4.06948
LeftUpLeg  -30.8525 11.3575 -3.20145
LeftLeg  16.9395 6.49123 1.5238
LeftFoot  1.96937 -0.00374224 0.217719
LeftToes  -8.73504 2.60077e-006 -1.42232e-007
Spine  4.789 3.68333 2.70656
Spine1  9.7485 7.12641 5.69116
RightShoulder  0.00780626 2.29683 -1.45978
RightArm  23.6217 -35.8071 40.8906
RightForeArm  52.2914 73.1895 36.0265
RightHand  -0.0248829 0.216796 -13.1196
LeftShoulder1  -0.00301721 4.71864 -6.62722
LeftArm  33.5159 34.3256 -39.0751
LeftForeArm  122.06 -79.8635 -94.7239
LeftHand  -2.28903 -16.505 15.3219
HEad  -34.0087 52.0565 -35.1009
RightUpLeg  -5.36496 -10.7462 6.96696
RightLeg  9.23481 2.59216 0.253322
RightFoot  -3.49536 -0.0164042 -0.160108
RightToes  -23.8357 -0.103857 -0.206924
652
root  19.2689 33.9161 15.4648 8.58232 -25.5299 -4.5756
LeftUpLeg  -31.1039 13.4772 -5.76463
LeftLeg  9.96949 4.83044 0.530444
LeftFoot  1.13507 -0.000812134 0.0819779
LeftToes  -11.3358 2.60077e-006 -1.42232e-007
Spine  4.6495 3.93335 2.78502
Spine1  9.47992 7.59837 5.89441
RightShoulder  0.0047717 2.20222 -2.15001
RightArm  29.1314 -38.033 37.3148
RightForeArm  68.6931 76.9496 50.1361
RightHand  -0.323794 2.45059 -14.7205
LeftShoulder1  -0.00421653 5.16913 -6.38763
LeftArm  37.7584 36.7475 -35.3835
LeftForeArm  135.071 -79.4741 -106.374
LeftHand  -2.7265 -17.5372 17.1778
HEad  -35.3757 52.3589 -35.7675
RightUpLeg  -4.85769 -10.3661 7.68527
RightLeg  8.96052 3.02966 0.281209
RightFoot  -4.40868 -0.0234351 -0.231313
RightToes  -23.681 -0.10124 -0.20574
653
root  18.7819 33.8295 15.9458 9.44766 -26.1876 -5.0169
LeftUpLeg  -31.5742 16.1626 -8.52233
LeftLeg  5.31123 6.46083 0.182793
LeftFoot  1.30655 -0.00151287 0.132673
LeftToes  -11.2888 2.60077e-006 -1.42232e-007
Spine  4.52522 4.11141 2.76413
Spine1  9.23366 7.93647 5.89242
RightShoulder  0.00203117 2.41682 -2.93591
RightArm  34.313 -40.1827 34.3823
RightForeArm  85.6363 78.7874 63.9245
RightHand  -0.740864 4.86239 -16.9692
LeftShoulder1  -0.00525948 5.42584 -6.02536
LeftArm  41.7973 38.7036 -32.4163
LeftForeArm  145.7 -78.7686 -116.073
LeftHand  -3.24267 -18.524 19.3305
HEad  -37.4682 52.4709 -36.9672
RightUpLeg  -4.46513 -10.2683 8.30207
RightLeg  9.28251 3.64821 0.358971
RightFoot  -5.67708 -0.0362443 -0.353476
RightToes  -23.0395 -0.0990429 -0.2008
654
root  18.2638 33.7421 16.4652 10.0865 -26.758 -5.02968
LeftUpLeg  -31.6663 18.2383 -10.854
LeftLeg  2.81501 10.213 -0.154019
LeftFoot  4.22693 -0.0275058 0.745321
LeftToes  -12.6477 2.60077e-006 -1.42232e-007
Spine  4.29869 4.23758 2.59507
Spine1  8.78017 8.20365 5.56432
RightShoulder  -0.000316117 2.67829 -3.45864
RightArm  39.6029 -41.8237 31.8505
RightForeArm  99.634 79.5407 74.7773
RightHand  -1.20203 6.88104 -19.4432
LeftShoulder1  -0.00612103 5.39592 -5.82779
LeftArm  45.4267 39.8124 -30.3319
LeftForeArm  154.096 -78.0612 -122.457
LeftHand  -3.73081 -19.2396 21.3916
HEad  -38.6282 52.7966 -38.0264
RightUpLeg  -4.23398 -10.009 8.52542
RightLeg  10.2333 3.96145 0.45603
RightFoot  -7.21111 -0.0541942 -0.482544
RightToes  -22.4736 -0.095673 -0.196407
655
root  17.6888 33.6372 17.0329 10.3169 -27.1701 -4.56212
LeftUpLeg  -31.3519 18.7823 -11.8058
LeftLeg  4.00138 13.2746 0.0729356
LeftFoot  4.87733 -0.0483871 1.13611
LeftToes  -10.3511 2.60077e-006 -1.42232e-007
Spine  4.01109 4.2398 2.24699
Spine1  8.19026 8.25536 4.84085
RightShoulder  -0.00222886 2.97609 -3.42117
RightArm  44.2224 -42.851 30.193
RightForeArm  109.156 79.7817 81.2052
RightHand  -1.73717 8.43175 -22.8914
LeftShoulder1  -0.00677613 5.50379 -5.74308
LeftArm  47.9078 39.7823 -29.5559
LeftForeArm  157.514 -77.7002 -125.076
LeftHand  -3.95599 -19.3745 22.5126
HEad  -39.1419 53.2821 -39.1265
RightUpLeg  -3.8987 -9.37282 8.36541
RightLeg  11.6219 3.73165 0.521371
RightFoot  -9.09953 -0.0753017 -0.568764
RightToes  -21.1346 -0.0878735 -0.185881
656
root  17.0658 33.5353 17.6887 10.0034 -27.8377 -3.33531
LeftUpLeg  -30.5937 19.0426 -12.2592
LeftLeg  7.34678 15.3792 0.972394
LeftFoot  5.29116 -0.066951 1.44885
LeftToes  -9.78558 2.60077e-006 -1.42232e-007
Spine  3.75034 4.20458 1.53215
Spine1  7.63207 8.26775 3.3666
RightShoulder  -0.00388693 3.10083 -2.97672
RightArm  47.23 -43.0879 30.7648
RightForeArm  113.217 79.8316 83.2638
RightHand  -2.29911 9.43176 -26.9907
LeftShoulder1  -0.00719972 5.49251 -6.01785
LeftArm  48.6026 39.1945 -29.5414
LeftForeArm  156.485 -77.8241 -124.214
LeftHand  -4.15099 -18.9433 24.1494
HEad  -39.6388 53.5521 -40.1215
RightUpLeg  -3.48999 -8.29618 7.52025
RightLeg  13.6273 3.14431 0.551947
RightFoot  -11.2624 -0.0950613 -0.586573
RightToes  -19.5398 -0.0789082 -0.173112
